<svg width="70" height="70" viewBox="0 0 70 70" fill="none" xmlns="http://www.w3.org/2000/svg">
<rect width="70" height="70" rx="16" fill="white" fill-opacity="0.05"/>
<path d="M30.2941 42.402L38.2108 34.951L41.9363 38.6765M30.2941 42.402H39.6078C41.151 42.402 42.402 41.151 42.402 39.6078V34.0196M30.2941 42.402C28.751 42.402 27.5 41.151 27.5 39.6078V30.2941C27.5 28.751 28.751 27.5 30.2941 27.5H36.348M43.3333 31.2255L41.4706 29.3627M41.4706 29.3627L39.6078 27.5M41.4706 29.3627L39.6078 31.2255M41.4706 29.3627L43.3333 27.5M33.0882 31.6912C33.0882 32.4627 32.4628 33.0882 31.6912 33.0882C30.9196 33.0882 30.2941 32.4627 30.2941 31.6912C30.2941 30.9196 30.9196 30.2941 31.6912 30.2941C32.4628 30.2941 33.0882 30.9196 33.0882 31.6912Z" stroke="white" stroke-width="1.66667" stroke-linecap="round" stroke-linejoin="round"/>
</svg>
