<svg width="15" height="17" viewBox="0 0 15 17" fill="none" xmlns="http://www.w3.org/2000/svg">
<path d="M0.833008 3.48043L14.1663 3.48043M10.833 15.8334H4.16634C3.24587 15.8334 2.49967 15.0433 2.49967 14.0687V4.36279C2.49967 3.87548 2.87277 3.48043 3.33301 3.48043H11.6663C12.1266 3.48043 12.4997 3.87548 12.4997 4.36279V14.0687C12.4997 15.0433 11.7535 15.8334 10.833 15.8334ZM5.83301 3.48043H9.16634C9.62658 3.48043 9.99967 3.08539 9.99967 2.59808V1.71573C9.99967 1.22842 9.62658 0.833374 9.16634 0.833374H5.83301C5.37277 0.833374 4.99967 1.22842 4.99967 1.71573V2.59808C4.99967 3.08539 5.37277 3.48043 5.83301 3.48043Z" stroke="white" stroke-width="1.66667" stroke-linecap="round"/>
</svg>
