<svg width="51" height="36" viewBox="0 0 51 36" fill="none" xmlns="http://www.w3.org/2000/svg">
<rect x="6.21166" width="46" height="24" rx="12" transform="rotate(15 6.21166 0)" fill="#FF0302"/>
<path d="M10.4538 15.2145L10.7364 14.1597L14.9285 15.283L14.6459 16.3378L10.4538 15.2145ZM17.0516 20.5044L19.1061 12.8369L17.1588 12.3151L17.3726 11.5172C17.7404 11.5868 18.0713 11.632 18.3653 11.6528C18.6617 11.6646 18.9374 11.6273 19.1924 11.541C19.4588 11.4482 19.7164 11.2804 19.965 11.0379L20.7899 11.2589L18.2281 20.8196L17.0516 20.5044ZM23.8113 22.4461C23.4146 22.3398 23.0435 22.1921 22.6981 22.0029C22.3616 21.8161 22.0688 21.5927 21.8196 21.3327C21.5728 21.0636 21.3844 20.7571 21.2544 20.413C21.1243 20.069 21.0719 19.6877 21.097 19.2693L22.287 19.5882C22.3186 19.8672 22.4183 20.1258 22.5864 20.3641C22.7545 20.6024 22.9604 20.8074 23.2043 20.979C23.4596 21.144 23.7225 21.2628 23.993 21.3353C24.4347 21.4536 24.8462 21.4866 25.2275 21.4341C25.6177 21.3841 25.9564 21.2381 26.2434 20.9962C26.5329 20.7452 26.7417 20.3808 26.8697 19.903C27.046 19.2449 26.983 18.6869 26.6805 18.229C26.3781 17.7711 25.9113 17.4576 25.2802 17.2885C24.9016 17.1871 24.5319 17.1605 24.1711 17.2087C23.8193 17.2594 23.4813 17.3669 23.157 17.5313L21.94 17.2052L23.7822 12.0607L29.5024 13.5934L29.2126 14.6753L24.5471 13.4252L23.4723 16.3548C23.7688 16.2217 24.1086 16.1436 24.4916 16.1206C24.877 16.0886 25.3267 16.1415 25.8405 16.2792C26.4536 16.4434 26.9562 16.7134 27.3483 17.089C27.7495 17.467 28.0147 17.9198 28.1439 18.4472C28.2846 18.968 28.2716 19.5394 28.1049 20.1615C27.9261 20.8286 27.6195 21.36 27.1849 21.7557C26.7594 22.1538 26.2501 22.4135 25.6572 22.5349C25.0757 22.6496 24.4604 22.62 23.8113 22.4461ZM29.8915 23.9448L38.3358 15.9603L39.5258 16.2792L31.0951 24.2673L29.8915 23.9448ZM36.1174 25.7C35.6846 25.5841 35.3449 25.3916 35.0981 25.1225C34.8604 24.8559 34.7071 24.5443 34.6384 24.1877C34.5721 23.8221 34.5921 23.4409 34.6984 23.0443C34.8095 22.6295 34.984 22.285 35.2218 22.0105C35.4596 21.736 35.7514 21.5485 36.0972 21.4479C36.443 21.3473 36.8278 21.3538 37.2515 21.4673C37.6662 21.5784 37.9937 21.7628 38.2338 22.0204C38.474 22.278 38.6285 22.5851 38.6972 22.9417C38.7659 23.2983 38.7447 23.684 38.6336 24.0987C38.5273 24.4954 38.354 24.8354 38.1138 25.1189C37.876 25.3934 37.5875 25.5866 37.2483 25.6987C36.909 25.8107 36.5321 25.8111 36.1174 25.7ZM36.3611 24.7363C36.5955 24.7991 36.7948 24.7945 36.959 24.7225C37.1323 24.653 37.2701 24.5353 37.3725 24.3695C37.4839 24.2061 37.5662 24.0253 37.6194 23.8269C37.6725 23.6286 37.6905 23.4353 37.6733 23.2471C37.6675 23.0523 37.607 22.8815 37.4917 22.7347C37.3855 22.5902 37.2151 22.4866 36.9807 22.4238C36.6201 22.3272 36.3318 22.3756 36.1157 22.5689C35.9087 22.7646 35.7653 23.0113 35.6856 23.3088C35.601 23.6243 35.604 23.9198 35.6944 24.1953C35.7873 24.4617 36.0095 24.642 36.3611 24.7363ZM32.2407 18.7477C31.8079 18.6318 31.4682 18.4393 31.2214 18.1703C30.9836 17.9036 30.8304 17.592 30.7617 17.2354C30.7044 16.8722 30.7289 16.4923 30.8352 16.0956C30.9463 15.6809 31.1163 15.3351 31.3451 15.0582C31.5829 14.7838 31.8747 14.5962 32.2205 14.4956C32.5663 14.3951 32.9511 14.4015 33.3748 14.5151C33.7985 14.6286 34.1305 14.8142 34.3707 15.0718C34.6108 15.3294 34.7608 15.6353 34.8205 15.9895C34.8892 16.3461 34.868 16.7317 34.7569 17.1464C34.6506 17.5431 34.4773 17.8832 34.2371 18.1667C34.0083 18.4435 33.7243 18.638 33.3851 18.75C33.0459 18.862 32.6644 18.8613 32.2407 18.7477ZM32.4979 17.7876C32.7323 17.8504 32.9316 17.8459 33.0959 17.7739C33.2601 17.702 33.3979 17.5843 33.5093 17.4209C33.6207 17.2575 33.703 17.0766 33.7562 16.8783C33.8093 16.6799 33.8273 16.4867 33.8101 16.2985C33.7953 16.1013 33.7347 15.9304 33.6285 15.786C33.5223 15.6416 33.3519 15.538 33.1175 15.4752C32.7569 15.3786 32.4686 15.4269 32.2525 15.6202C32.0365 15.8136 31.8886 16.059 31.8088 16.3565C31.7243 16.672 31.7273 16.9675 31.8177 17.243C31.9106 17.5095 32.1373 17.691 32.4979 17.7876Z" fill="white"/>
</svg>
