<svg width="54" height="36" viewBox="0 0 54 36" fill="none" xmlns="http://www.w3.org/2000/svg">
<rect x="6.21166" width="49" height="24" rx="12" transform="rotate(15 6.21166 0)" fill="#FF0302"/>
<path d="M10.4538 15.2145L10.7364 14.1597L14.9285 15.283L14.6459 16.3378L10.4538 15.2145ZM15.1719 20.0007L15.4364 19.0135L18.7678 17.3988C19.0668 17.2566 19.3932 17.1025 19.7469 16.9364C20.112 16.7637 20.464 16.5681 20.8027 16.3497C21.1505 16.1337 21.4535 15.8863 21.7117 15.6077C21.9814 15.3224 22.1658 14.995 22.2648 14.6253C22.4194 14.0484 22.3665 13.5607 22.106 13.1624C21.848 12.7551 21.4305 12.4741 20.8535 12.3195C20.3937 12.1963 19.9672 12.1835 19.5739 12.281C19.1806 12.3785 18.8815 12.5931 18.6767 12.9247L17.4191 12.5877C17.6421 12.1161 17.9536 11.7647 18.3537 11.5337C18.7652 11.2961 19.2181 11.1566 19.7124 11.1151C20.2156 11.076 20.7107 11.1217 21.1975 11.2522C21.7925 11.4116 22.2864 11.6599 22.6792 11.997C23.081 12.3366 23.3526 12.7475 23.4939 13.2299C23.6466 13.7056 23.6433 14.241 23.4838 14.836C23.3268 15.422 23.0764 15.9057 22.7327 16.2871C22.3979 16.6708 22.002 16.9947 21.5447 17.2587C21.0989 17.5161 20.6273 17.7617 20.1298 17.9956L17.162 19.389L22.0303 20.6934L21.744 21.7617L15.1719 20.0007ZM26.5581 23.1821C26.1615 23.0758 25.7904 22.9281 25.4449 22.7389C25.1085 22.5521 24.8156 22.3287 24.5664 22.0687C24.3197 21.7996 24.1313 21.4931 24.0012 21.149C23.8712 20.805 23.8187 20.4238 23.8439 20.0053L25.0339 20.3242C25.0654 20.6032 25.1652 20.8619 25.3333 21.1001C25.5013 21.3384 25.7073 21.5434 25.9512 21.715C26.2065 21.8801 26.4694 21.9988 26.7398 22.0713C27.1816 22.1896 27.5931 22.2226 27.9743 22.1701C28.3646 22.1201 28.7032 21.9741 28.9903 21.7322C29.2798 21.4812 29.4885 21.1168 29.6165 20.639C29.7929 19.9809 29.7298 19.4229 29.4274 18.965C29.1249 18.5071 28.6581 18.1936 28.0271 18.0245C27.6484 17.9231 27.2787 17.8965 26.9179 17.9448C26.5662 17.9954 26.2281 18.103 25.9039 18.2673L24.6868 17.9412L26.5291 12.7967L32.2493 14.3294L31.9594 15.4113L27.294 14.1612L26.2191 17.0908C26.5157 16.9577 26.8555 16.8796 27.2385 16.8566C27.6239 16.8246 28.0735 16.8775 28.5874 17.0152C29.2004 17.1794 29.703 17.4494 30.0952 17.825C30.4963 18.2031 30.7615 18.6558 30.8908 19.1832C31.0314 19.704 31.0184 20.2755 30.8517 20.8975C30.673 21.5646 30.3663 22.0961 29.9318 22.4917C29.5062 22.8898 28.997 23.1495 28.4041 23.2709C27.8225 23.3856 27.2072 23.356 26.5581 23.1821ZM32.6384 24.6808L41.0826 16.6963L42.2727 17.0152L33.8419 25.0033L32.6384 24.6808ZM38.8642 26.436C38.4315 26.3201 38.0917 26.1276 37.845 25.8585C37.6072 25.5919 37.454 25.2803 37.3853 24.9237C37.319 24.5581 37.339 24.1769 37.4452 23.7803C37.5564 23.3656 37.7308 23.021 37.9686 22.7465C38.2064 22.472 38.4983 22.2845 38.8441 22.1839C39.1899 22.0833 39.5747 22.0898 39.9984 22.2033C40.4131 22.3145 40.7405 22.4988 40.9807 22.7564C41.2209 23.014 41.3753 23.3211 41.444 23.6777C41.5127 24.0343 41.4915 24.42 41.3804 24.8347C41.2741 25.2314 41.1009 25.5715 40.8607 25.8549C40.6228 26.1294 40.3343 26.3227 39.9951 26.4347C39.6559 26.5467 39.2789 26.5471 38.8642 26.436ZM39.108 25.4723C39.3424 25.5351 39.5417 25.5305 39.7059 25.4586C39.8791 25.389 40.017 25.2714 40.1194 25.1055C40.2308 24.9421 40.3131 24.7613 40.3662 24.5629C40.4193 24.3646 40.4373 24.1713 40.4201 23.9831C40.4143 23.7883 40.3538 23.6175 40.2385 23.4707C40.1323 23.3263 39.962 23.2227 39.7276 23.1598C39.367 23.0632 39.0786 23.1116 38.8626 23.3049C38.6555 23.5007 38.5121 23.7473 38.4324 24.0448C38.3479 24.3603 38.3508 24.6558 38.4413 24.9313C38.5341 25.1977 38.7564 25.3781 39.108 25.4723ZM34.9875 19.4838C34.5548 19.3678 34.215 19.1753 33.9682 18.9063C33.7305 18.6397 33.5772 18.328 33.5085 17.9714C33.4513 17.6082 33.4758 17.2283 33.582 16.8316C33.6932 16.4169 33.8631 16.0711 34.0919 15.7942C34.3297 15.5198 34.6215 15.3322 34.9674 15.2317C35.3132 15.1311 35.6979 15.1375 36.1217 15.2511C36.5454 15.3646 36.8773 15.5502 37.1175 15.8078C37.3577 16.0654 37.5076 16.3713 37.5673 16.7255C37.636 17.0821 37.6148 17.4677 37.5037 17.8824C37.3974 18.2791 37.2242 18.6192 36.9839 18.9027C36.7551 19.1796 36.4711 19.374 36.1319 19.486C35.7927 19.5981 35.4112 19.5973 34.9875 19.4838ZM35.2448 18.5236C35.4792 18.5864 35.6785 18.5819 35.8427 18.5099C36.0069 18.438 36.1447 18.3203 36.2562 18.1569C36.3676 17.9935 36.4499 17.8126 36.503 17.6143C36.5562 17.416 36.5741 17.2227 36.5569 17.0345C36.5421 16.8373 36.4816 16.6665 36.3754 16.522C36.2691 16.3776 36.0988 16.274 35.8644 16.2112C35.5038 16.1146 35.2154 16.1629 34.9994 16.3563C34.7833 16.5496 34.6354 16.795 34.5557 17.0925C34.4712 17.4081 34.4741 17.7036 34.5646 17.979C34.6574 18.2455 34.8842 18.427 35.2448 18.5236Z" fill="white"/>
</svg>
