<svg width="54" height="36" viewBox="0 0 54 36" fill="none" xmlns="http://www.w3.org/2000/svg">
<rect x="6.21166" width="49" height="24" rx="12" transform="rotate(15 6.21166 0)" fill="#FF0302"/>
<path d="M10.4538 15.2145L10.7364 14.1597L14.9285 15.283L14.6459 16.3378L10.4538 15.2145ZM18.6724 21.0546C18.2937 20.9532 17.9203 20.8144 17.5519 20.6384C17.195 20.4558 16.8727 20.2342 16.5851 19.9735C16.3064 19.7153 16.0885 19.4105 15.9314 19.0592C15.7834 18.7103 15.7345 18.3156 15.785 17.875L17.002 18.2011C17.0281 18.5366 17.1444 18.8238 17.3509 19.0627C17.5574 19.3017 17.8043 19.4982 18.0915 19.6525C18.3901 19.8002 18.6837 19.9126 18.9722 19.9899C19.1795 20.0455 19.4097 20.0879 19.6628 20.117C19.9159 20.1462 20.1708 20.1324 20.4276 20.0755C20.6934 20.0212 20.9286 19.9006 21.1332 19.7139C21.3403 19.5181 21.4946 19.2309 21.596 18.8523C21.6926 18.4917 21.7023 18.1851 21.6251 17.9324C21.5502 17.6708 21.4146 17.4557 21.2182 17.2872C21.0242 17.1096 20.7923 16.9653 20.5225 16.8544C20.2617 16.7458 19.9916 16.6541 19.7121 16.5792L18.7926 16.3328L19.0752 15.278L19.6296 15.4266C19.9452 15.5112 20.2499 15.5638 20.5439 15.5846C20.8403 15.5964 21.1136 15.5682 21.3637 15.4999C21.6139 15.4317 21.8254 15.3096 21.9982 15.1336C22.1799 14.9601 22.3119 14.7201 22.394 14.4136C22.5124 13.9718 22.5071 13.6129 22.3782 13.3368C22.2583 13.0631 22.0649 12.847 21.7982 12.6886C21.5314 12.5301 21.2403 12.4086 20.9248 12.3241C20.6723 12.2565 20.4 12.227 20.1078 12.2356C19.827 12.2377 19.56 12.2966 19.3068 12.4123C19.056 12.5191 18.857 12.7025 18.71 12.9626L17.5335 12.6474C17.6939 12.2652 17.9107 11.961 18.1839 11.7346C18.4572 11.5083 18.7622 11.3436 19.099 11.2406C19.4448 11.14 19.8044 11.0963 20.1777 11.1094C20.5601 11.1248 20.936 11.1821 21.3057 11.2811C21.7114 11.3898 22.0779 11.5364 22.4054 11.7207C22.7442 11.8985 23.0223 12.1228 23.2396 12.3936C23.4594 12.6554 23.6036 12.9646 23.6723 13.3212C23.75 13.6802 23.7285 14.0851 23.6077 14.5359C23.5184 14.8694 23.3821 15.1615 23.1991 15.4119C23.016 15.6624 22.7885 15.8624 22.5166 16.0117C22.2537 16.1635 21.9463 16.2648 21.5945 16.3154C21.9809 16.4963 22.2803 16.7311 22.4928 17.0199C22.7143 17.3112 22.8504 17.6327 22.9011 17.9845C22.9632 18.3296 22.9423 18.6961 22.8384 19.0837C22.6766 19.6877 22.4368 20.1501 22.1189 20.4708C21.8011 20.7914 21.4431 21.0095 21.045 21.1251C20.6493 21.2316 20.2422 21.2723 19.8238 21.2472C19.4078 21.213 19.024 21.1488 18.6724 21.0546ZM26.9939 23.2989C26.5973 23.1926 26.2262 23.0448 25.8807 22.8556C25.5443 22.6689 25.2514 22.4455 25.0022 22.1854C24.7555 21.9164 24.5671 21.6099 24.437 21.2658C24.307 20.9218 24.2545 20.5405 24.2797 20.1221L25.4697 20.441C25.5012 20.72 25.601 20.9786 25.7691 21.2169C25.9371 21.4552 26.1431 21.6601 26.387 21.8318C26.6423 21.9968 26.9052 22.1156 27.1756 22.188C27.6174 22.3064 28.0289 22.3394 28.4101 22.2869C28.8004 22.2369 29.139 22.0909 29.4261 21.8489C29.7156 21.598 29.9243 21.2336 30.0523 20.7558C30.2287 20.0977 30.1656 19.5397 29.8632 19.0818C29.5607 18.6239 29.0939 18.3104 28.4629 18.1413C28.0842 18.0399 27.7145 18.0133 27.3537 18.0615C27.0019 18.1122 26.6639 18.2197 26.3397 18.3841L25.1226 18.058L26.9649 12.9135L32.6851 14.4462L32.3952 15.528L27.7298 14.2779L26.6549 17.2076C26.9515 17.0745 27.2913 16.9964 27.6743 16.9734C28.0597 16.9414 28.5093 16.9943 29.0232 17.1319C29.6362 17.2962 30.1388 17.5662 30.531 17.9418C30.9321 18.3198 31.1973 18.7726 31.3266 19.3C31.4672 19.8208 31.4542 20.3922 31.2875 21.0143C31.1088 21.6814 30.8021 22.2128 30.3676 22.6085C29.942 23.0066 29.4328 23.2663 28.8399 23.3877C28.2583 23.5024 27.643 23.4728 26.9939 23.2989ZM33.0742 24.7976L41.5184 16.8131L42.7085 17.132L34.2777 25.1201L33.0742 24.7976ZM39.3 26.5528C38.8673 26.4368 38.5275 26.2444 38.2808 25.9753C38.043 25.7087 37.8898 25.3971 37.8211 25.0405C37.7548 24.6749 37.7748 24.2937 37.881 23.897C37.9922 23.4823 38.1666 23.1378 38.4044 22.8633C38.6422 22.5888 38.9341 22.4013 39.2799 22.3007C39.6257 22.2001 40.0105 22.2066 40.4342 22.3201C40.8489 22.4312 41.1763 22.6156 41.4165 22.8732C41.6567 23.1308 41.8111 23.4379 41.8798 23.7945C41.9485 24.1511 41.9273 24.5368 41.8162 24.9515C41.7099 25.3481 41.5367 25.6882 41.2965 25.9717C41.0586 26.2462 40.7701 26.4394 40.4309 26.5514C40.0917 26.6635 39.7147 26.6639 39.3 26.5528ZM39.5438 25.589C39.7782 25.6519 39.9775 25.6473 40.1417 25.5753C40.3149 25.5058 40.4527 25.3881 40.5552 25.2223C40.6666 25.0589 40.7489 24.878 40.802 24.6797C40.8551 24.4814 40.8731 24.2881 40.8559 24.0999C40.8501 23.9051 40.7896 23.7343 40.6743 23.5875C40.5681 23.443 40.3978 23.3394 40.1634 23.2766C39.8028 23.18 39.5144 23.2283 39.2984 23.4217C39.0913 23.6174 38.9479 23.8641 38.8682 24.1616C38.7837 24.4771 38.7866 24.7726 38.8771 25.0481C38.9699 25.3145 39.1922 25.4948 39.5438 25.589ZM35.4233 19.6005C34.9906 19.4846 34.6508 19.2921 34.404 19.0231C34.1663 18.7564 34.013 18.4448 33.9443 18.0882C33.8871 17.725 33.9116 17.3451 34.0178 16.9484C34.129 16.5337 34.2989 16.1879 34.5277 15.911C34.7655 15.6366 35.0573 15.449 35.4032 15.3484C35.749 15.2478 36.1337 15.2543 36.5575 15.3678C36.9812 15.4814 37.3131 15.667 37.5533 15.9246C37.7935 16.1822 37.9434 16.4881 38.0031 16.8423C38.0718 17.1989 38.0506 17.5845 37.9395 17.9992C37.8332 18.3959 37.66 18.736 37.4197 19.0194C37.1909 19.2963 36.9069 19.4908 36.5677 19.6028C36.2285 19.7148 35.847 19.7141 35.4233 19.6005ZM35.6806 18.6404C35.915 18.7032 36.1143 18.6986 36.2785 18.6267C36.4427 18.5547 36.5805 18.4371 36.692 18.2737C36.8034 18.1103 36.8857 17.9294 36.9388 17.7311C36.9919 17.5327 37.0099 17.3395 36.9927 17.1513C36.9779 16.9541 36.9174 16.7832 36.8112 16.6388C36.7049 16.4944 36.5346 16.3908 36.3002 16.328C35.9396 16.2314 35.6512 16.2797 35.4352 16.473C35.2191 16.6664 35.0712 16.9118 34.9915 17.2093C34.907 17.5248 34.9099 17.8203 35.0004 18.0958C35.0932 18.3622 35.32 18.5438 35.6806 18.6404Z" fill="white"/>
</svg>
