<svg width="22" height="31" viewBox="0 0 22 31" fill="none" xmlns="http://www.w3.org/2000/svg">
<path d="M10.6124 30.888C9.34693 30.888 8.12464 30.7442 6.94549 30.4566C5.79509 30.169 4.74536 29.7376 3.79629 29.1624C2.84722 28.5585 2.04194 27.7963 1.38047 26.876C0.718994 25.9557 0.258838 24.8628 0 23.5974H3.79629C4.11265 24.4027 4.61594 25.0929 5.30618 25.6681C5.99641 26.2433 6.77293 26.6891 7.63572 27.0054C8.52727 27.293 9.40445 27.4368 10.2672 27.4368C11.6765 27.4368 12.9275 27.2067 14.0204 26.7466C15.142 26.2864 16.0336 25.5818 16.6951 24.6327C17.3565 23.6549 17.6873 22.4039 17.6873 20.8796C17.6873 18.7801 17.0545 17.1696 15.7891 16.048C14.5237 14.9263 12.8844 14.3655 10.8712 14.3655C9.66329 14.3655 8.54165 14.5812 7.5063 15.0126C6.49971 15.444 5.5794 16.0336 4.74536 16.7813H0.862793L2.24326 0H20.4913V3.45117H5.60816L4.74536 13.0282C5.52188 12.3955 6.47095 11.8922 7.59258 11.5183C8.71421 11.1157 10.0947 10.9143 11.734 10.9143C13.6897 10.9143 15.4009 11.317 16.8676 12.1222C18.3631 12.9275 19.5135 14.0635 20.3188 15.5303C21.1528 16.9683 21.5698 18.6795 21.5698 20.6639C21.5698 22.7921 21.0809 24.6184 20.1031 26.1426C19.154 27.6669 17.8454 28.8461 16.1774 29.6801C14.5381 30.4854 12.6831 30.888 10.6124 30.888Z" fill="#D093FF"/>
</svg>
