<svg width="38" height="38" viewBox="0 0 38 38" fill="none" xmlns="http://www.w3.org/2000/svg">
<path d="M18.6 28.5V17.5M32.68 29.16C30.736 29.16 29.16 30.736 29.16 32.68C29.16 34.624 30.736 36.2 32.68 36.2C34.624 36.2 36.2 34.624 36.2 32.68C36.2 30.736 34.624 29.16 32.68 29.16ZM32.68 29.16L32.68 19.04C32.68 18.068 31.892 17.28 30.92 17.28H6.28C5.30798 17.28 4.52 18.068 4.52 19.04L4.52 29.16M4.52 29.16C2.57596 29.16 1 30.736 1 32.68C1 34.624 2.57596 36.2 4.52 36.2C6.46404 36.2 8.04 34.624 8.04 32.68C8.04 30.736 6.46404 29.16 4.52 29.16ZM18.6 36.2C16.656 36.2 15.08 34.624 15.08 32.68C15.08 30.736 16.656 29.16 18.6 29.16C20.544 29.16 22.12 30.736 22.12 32.68C22.12 34.624 20.544 36.2 18.6 36.2ZM7.6 9.8H29.6C30.815 9.8 31.8 8.81503 31.8 7.6V3.2C31.8 1.98497 30.815 1 29.6 1H7.6C6.38497 1 5.4 1.98497 5.4 3.2V7.6C5.4 8.81503 6.38497 9.8 7.6 9.8Z" stroke="#6C9FFF" stroke-width="2" stroke-linecap="round"/>
</svg>
