<svg width="35" height="28" viewBox="0 0 35 28" fill="none" xmlns="http://www.w3.org/2000/svg">
<path d="M28.7994 23.5722C28.2548 23.6637 27.8874 24.1794 27.9789 24.724C28.0704 25.2687 28.5861 25.636 29.1308 25.5445L28.9651 24.5584L28.7994 23.5722ZM26.6946 13.5343C26.1423 13.5343 25.6946 13.9821 25.6946 14.5343C25.6946 15.0866 26.1423 15.5343 26.6946 15.5343V14.5343V13.5343ZM25.0027 8.85153V9.85153C27.2484 9.85153 29.0684 8.03061 29.0684 5.78499H28.0684H27.0684C27.0684 6.92657 26.1433 7.85153 25.0027 7.85153V8.85153ZM21.937 5.78499H20.937C20.937 8.03061 22.757 9.85153 25.0027 9.85153V8.85153V7.85153C23.8621 7.85153 22.937 6.92657 22.937 5.78499H21.937ZM25.0027 2.71845V1.71845C22.757 1.71845 20.937 3.53936 20.937 5.78499H21.937H22.937C22.937 4.6434 23.8621 3.71845 25.0027 3.71845V2.71845ZM28.0684 5.78499H29.0684C29.0684 3.53936 27.2484 1.71845 25.0027 1.71845V2.71845V3.71845C26.1433 3.71845 27.0684 4.6434 27.0684 5.78499H28.0684ZM34 19.6342H33C33 20.5818 32.6941 21.4111 32.066 22.0701C31.4289 22.7385 30.3886 23.3052 28.7994 23.5722L28.9651 24.5584L29.1308 25.5445C31.0278 25.2259 32.5049 24.5084 33.5137 23.45C34.5315 22.3823 35 21.0424 35 19.6342H34ZM26.6946 14.5343V15.5343C28.5325 15.5343 30.1533 16.056 31.2879 16.848C32.4257 17.6423 33 18.643 33 19.6342H34H35C35 17.8088 33.9389 16.2595 32.4327 15.2081C30.9232 14.1543 28.8913 13.5343 26.6946 13.5343V14.5343ZM16.148 5.45382H15.148C15.148 7.7568 13.5848 9.22293 11.8017 9.22293V10.2229V11.2229C14.8194 11.2229 17.148 8.72666 17.148 5.45382H16.148ZM11.8017 10.2229V9.22293C10.0186 9.22293 8.4554 7.7568 8.4554 5.45382H7.4554H6.4554C6.4554 8.72666 8.78398 11.2229 11.8017 11.2229V10.2229ZM7.4554 5.45382H8.4554C8.4554 4.30309 8.85107 3.4571 9.42561 2.8983C10.0063 2.33352 10.8339 2 11.8017 2V1V0C10.3691 0 9.02352 0.499435 8.03118 1.46458C7.03267 2.43572 6.4554 3.81663 6.4554 5.45382H7.4554ZM11.8017 1V2C12.7695 2 13.5971 2.33352 14.1778 2.8983C14.7523 3.4571 15.148 4.30309 15.148 5.45382H16.148H17.148C17.148 3.81663 16.5707 2.43572 15.5722 1.46458C14.5798 0.499435 13.2343 0 11.8017 0V1ZM23.1288 21.4744H22.1288C22.1288 22.4388 21.5934 23.442 20.0261 24.2592C18.4258 25.0936 15.8425 25.6667 12.0644 25.6667L12.0644 26.6667L12.0644 27.6667C15.9979 27.6667 18.9468 27.0774 20.9508 26.0326C22.9878 24.9705 24.1288 23.3776 24.1288 21.4744H23.1288ZM12.0644 26.6667L12.0644 25.6667C8.2863 25.6667 5.70305 25.0936 4.10269 24.2592C2.53541 23.442 2 22.4388 2 21.4744H1H0C0 23.3776 1.14102 24.9705 3.17806 26.0326C5.18201 27.0774 8.13097 27.6667 12.0644 27.6667L12.0644 26.6667ZM1 21.4744H2C2 20.657 2.74431 19.6098 4.66551 18.7082C6.50738 17.8439 9.1222 17.2822 12.0644 17.2822V16.2822V15.2822C8.89592 15.2822 5.97853 15.8828 3.81587 16.8977C1.73255 17.8753 0 19.4243 0 21.4744H1ZM12.0644 16.2822V17.2822C15.0066 17.2822 17.6214 17.8439 19.4633 18.7082C21.3845 19.6098 22.1288 20.657 22.1288 21.4744H23.1288H24.1288C24.1288 19.4243 22.3963 17.8753 20.313 16.8977C18.1503 15.8828 15.2329 15.2822 12.0644 15.2822V16.2822Z" fill="#91FFE0"/>
</svg>
