<svg width="40" height="42" viewBox="0 0 40 42" fill="none" xmlns="http://www.w3.org/2000/svg">
<path d="M16.4 13.1C17.4004 8.69122 21.3432 5.4 26.0547 5.4C31.5223 5.4 35.9547 9.83238 35.9547 15.3C35.9547 20.3646 32.1516 24.541 27.2455 25.1291M9.8 9.8L14.2 5.4L9.8 1M1 14.2V11.2667C1 8.0266 3.6266 5.4 6.86667 5.4H11.2667M29.6 31.8L25.2 36.2L29.6 40.6M38.4 27.4V30.3333C38.4 33.5734 35.7734 36.2 32.5333 36.2H28.1333M20.8 28.5C20.8 33.9676 16.3676 38.4 10.9 38.4C5.43238 38.4 1 33.9676 1 28.5C1 23.0324 5.43238 18.6 10.9 18.6C16.3676 18.6 20.8 23.0324 20.8 28.5Z" stroke="#FFEA00" stroke-width="2" stroke-linecap="round" stroke-linejoin="round"/>
</svg>
