<svg width="35" height="35" viewBox="0 0 35 35" fill="none" xmlns="http://www.w3.org/2000/svg">
<path fill-rule="evenodd" clip-rule="evenodd" d="M20.5732 3.41316C19.7894 0.195612 15.2106 0.195612 14.4268 3.41316C14.3098 3.89665 14.0802 4.34569 13.7569 4.72372C13.4336 5.10175 13.0255 5.3981 12.566 5.58866C12.1065 5.77922 11.6085 5.85859 11.1125 5.82032C10.6165 5.78206 10.1366 5.62723 9.71176 5.36844C6.88192 3.64417 3.64369 6.88234 5.368 9.71214C6.48178 11.5395 5.49381 13.9238 3.41475 14.4291C0.195084 15.2108 0.195084 19.7917 3.41475 20.5714C3.89837 20.6885 4.34749 20.9183 4.72553 21.2418C5.10357 21.5654 5.39984 21.9737 5.59022 22.4335C5.78059 22.8932 5.85969 23.3914 5.82108 23.8875C5.78246 24.3836 5.62722 24.8636 5.368 25.2884C3.64369 28.1182 6.88192 31.3563 9.71176 29.6321C10.1365 29.3729 10.6165 29.2176 11.1126 29.179C11.6087 29.1404 12.107 29.2195 12.5667 29.4099C13.0265 29.6002 13.4348 29.8965 13.7584 30.2745C14.0819 30.6526 14.3117 31.1017 14.4288 31.5853C15.2106 34.8049 19.7915 34.8049 20.5712 31.5853C20.6887 31.1019 20.9187 30.6531 21.2423 30.2753C21.566 29.8976 21.9742 29.6015 22.4338 29.4112C22.8935 29.2209 23.3915 29.1417 23.8875 29.1801C24.3835 29.2184 24.8634 29.3733 25.2882 29.6321C28.1181 31.3563 31.3563 28.1182 29.632 25.2884C29.3732 24.8635 29.2184 24.3836 29.18 23.8876C29.1416 23.3917 29.2208 22.8936 29.4111 22.434C29.6014 21.9744 29.8975 21.5662 30.2753 21.2425C30.6531 20.9189 31.1019 20.6889 31.5853 20.5714C34.8049 19.7897 34.8049 15.2088 31.5853 14.4291C31.1016 14.312 30.6525 14.0823 30.2745 13.7587C29.8964 13.4351 29.6002 13.0268 29.4098 12.5671C29.2194 12.1073 29.1403 11.6091 29.1789 11.113C29.2175 10.6169 29.3728 10.1369 29.632 9.71214C31.3563 6.88234 28.1181 3.64417 25.2882 5.36844C24.8635 5.62766 24.3835 5.7829 23.8874 5.82152C23.3913 5.86013 22.893 5.78103 22.4333 5.59066C21.9735 5.40029 21.5652 5.10402 21.2416 4.72599C20.9181 4.34795 20.6883 3.89884 20.5712 3.41523L20.5732 3.41316Z" stroke="#A1A1A1" stroke-width="2"/>
<path d="M21.1667 17.5C21.1667 19.525 19.525 21.1667 17.5 21.1667C15.475 21.1667 13.8333 19.525 13.8333 17.5C13.8333 15.475 15.475 13.8333 17.5 13.8333C19.525 13.8333 21.1667 15.475 21.1667 17.5Z" stroke="#A1A1A1" stroke-width="2"/>
</svg>
