<svg width="15" height="15" viewBox="0 0 15 15" fill="none" xmlns="http://www.w3.org/2000/svg">
<path d="M14.0627 8.21236C14.4562 8.08279 14.6701 7.65881 14.5405 7.26539C14.4109 6.87196 13.9869 6.65807 13.5935 6.78764L13.8281 7.5L14.0627 8.21236ZM7.28906 9L7.21004 9.74582C7.26605 9.75176 7.32255 9.75137 7.37847 9.74465L7.28906 9ZM3.75 8.625L3.48666 9.32725C3.54601 9.3495 3.60794 9.36415 3.67097 9.37082L3.75 8.625ZM10.4123 8.625L10.5017 9.36965C10.5511 9.36373 10.5997 9.35291 10.6469 9.33736L10.4123 8.625ZM14.25 7.5H13.5C13.5 10.8137 10.8137 13.5 7.5 13.5V14.25V15C11.6421 15 15 11.6421 15 7.5H14.25ZM7.5 14.25V13.5C4.18629 13.5 1.5 10.8137 1.5 7.5H0.75H0C0 11.6421 3.35786 15 7.5 15V14.25ZM0.75 7.5H1.5C1.5 4.18629 4.18629 1.5 7.5 1.5V0.75V0C3.35786 0 0 3.35786 0 7.5H0.75ZM7.5 0.75V1.5C10.8137 1.5 13.5 4.18629 13.5 7.5H14.25H15C15 3.35786 11.6421 0 7.5 0V0.75ZM7.5 14.25V13.5C7.34041 13.5 7.12925 13.4292 6.87181 13.1803C6.61076 12.928 6.34141 12.5266 6.09894 11.9724C5.61499 10.8662 5.29688 9.28554 5.29688 7.5H4.54688H3.79688C3.79688 9.44238 4.13984 11.2367 4.72471 12.5736C5.01665 13.2409 5.38365 13.828 5.82921 14.2588C6.27839 14.693 6.84411 15 7.5 15V14.25ZM4.54688 7.5H5.29688C5.29688 5.71446 5.61499 4.13383 6.09894 3.02764C6.34141 2.47344 6.61076 2.07204 6.87181 1.81966C7.12925 1.57077 7.34041 1.5 7.5 1.5V0.75V0C6.84411 0 6.27839 0.306986 5.82921 0.741236C5.38365 1.172 5.01665 1.75911 4.72471 2.42642C4.13984 3.76325 3.79688 5.55762 3.79688 7.5H4.54688ZM7.5 14.25V15C8.15589 15 8.72161 14.693 9.17079 14.2588C9.61635 13.828 9.98335 13.2409 10.2753 12.5736C10.8602 11.2367 11.2031 9.44238 11.2031 7.5H10.4531H9.70312C9.70312 9.28554 9.38501 10.8662 8.90106 11.9724C8.65859 12.5266 8.38924 12.928 8.12819 13.1803C7.87075 13.4292 7.65959 13.5 7.5 13.5V14.25ZM10.4531 7.5H11.2031C11.2031 5.55762 10.8602 3.76325 10.2753 2.42642C9.98335 1.75911 9.61635 1.172 9.17079 0.741236C8.72161 0.306986 8.15589 0 7.5 0V0.75V1.5C7.65959 1.5 7.87075 1.57077 8.12819 1.81966C8.38924 2.07204 8.65859 2.47344 8.90106 3.02764C9.38501 4.13383 9.70312 5.71446 9.70312 7.5H10.4531ZM0.75 7.5L0.486657 8.20225L3.48666 9.32725L3.75 8.625L4.01334 7.92275L1.01334 6.79775L0.75 7.5ZM3.75 8.625L3.67097 9.37082L7.21004 9.74582L7.28906 9L7.36809 8.25418L3.82903 7.87918L3.75 8.625ZM7.28906 9L7.37847 9.74465L10.5017 9.36965L10.4123 8.625L10.3229 7.88035L7.19965 8.25535L7.28906 9ZM10.4123 8.625L10.6469 9.33736L14.0627 8.21236L13.8281 7.5L13.5935 6.78764L10.1777 7.91264L10.4123 8.625Z" fill="#FF7EE7"/>
</svg>
