<svg width="15" height="12" viewBox="0 0 15 12" fill="none" xmlns="http://www.w3.org/2000/svg">
<path d="M11.8574 9.64442C11.5851 9.69017 11.4014 9.94802 11.4472 10.2203C11.4929 10.4927 11.7508 10.6763 12.0231 10.6306L11.9403 10.1375L11.8574 9.64442ZM11.0114 5.53678C10.7353 5.53678 10.5114 5.76064 10.5114 6.03678C10.5114 6.31292 10.7353 6.53678 11.0114 6.53678V6.03678V5.53678ZM10.3193 3.71199V4.21199C11.2882 4.21199 12.0734 3.42634 12.0734 2.45749H11.5734H11.0734C11.0734 2.87432 10.7356 3.21199 10.3193 3.21199V3.71199ZM9.06514 2.45749H8.56514C8.56514 3.42634 9.35036 4.21199 10.3193 4.21199V3.71199V3.21199C9.90291 3.21199 9.56514 2.87432 9.56514 2.45749H9.06514ZM10.3193 1.203V0.703002C9.35036 0.703002 8.56514 1.48865 8.56514 2.45749H9.06514H9.56514C9.56514 2.04067 9.90291 1.703 10.3193 1.703V1.203ZM11.5734 2.45749H12.0734C12.0734 1.48865 11.2882 0.703002 10.3193 0.703002V1.203V1.703C10.7356 1.703 11.0734 2.04067 11.0734 2.45749H11.5734ZM14 8.12307H13.5C13.5 8.48979 13.3823 8.80587 13.143 9.05687C12.8993 9.31256 12.4935 9.53756 11.8574 9.64442L11.9403 10.1375L12.0231 10.6306C12.8131 10.4979 13.4373 10.1975 13.8669 9.74683C14.3009 9.29144 14.5 8.72009 14.5 8.12307H14ZM11.0114 6.03678V6.53678C11.747 6.53678 12.3914 6.74572 12.8385 7.05782C13.2872 7.37109 13.5 7.75551 13.5 8.12307H14H14.5C14.5 7.33839 14.0438 6.67968 13.4109 6.23785C12.7763 5.79487 11.9264 5.53678 11.0114 5.53678V6.03678ZM6.6969 2.32202H6.1969C6.1969 3.22006 5.59219 3.77302 4.91887 3.77302V4.27302V4.77302C6.20951 4.77302 7.1969 3.70499 7.1969 2.32202H6.6969ZM4.91887 4.27302V3.77302C4.24555 3.77302 3.64084 3.22006 3.64084 2.32202H3.14084H2.64084C2.64084 3.70499 3.62824 4.77302 4.91887 4.77302V4.27302ZM3.14084 2.32202H3.64084C3.64084 1.87338 3.79446 1.5516 4.01022 1.34175C4.22907 1.1289 4.54409 1 4.91887 1V0.5V0C4.31167 0 3.73768 0.211856 3.31301 0.624885C2.88526 1.04091 2.64084 1.63015 2.64084 2.32202H3.14084ZM4.91887 0.5V1C5.29365 1 5.60867 1.1289 5.82752 1.34175C6.04329 1.5516 6.1969 1.87338 6.1969 2.32202H6.6969H7.1969C7.1969 1.63015 6.95249 1.04091 6.52473 0.624885C6.10006 0.211856 5.52607 0 4.91887 0V0.5ZM9.5527 8.8759H9.0527C9.0527 9.22777 8.8612 9.61135 8.24139 9.93451C7.60504 10.2663 6.56488 10.5 5.02635 10.5L5.02635 11L5.02635 11.5C6.64255 11.5 7.86556 11.2582 8.70371 10.8212C9.55839 10.3756 10.0527 9.69715 10.0527 8.8759H9.5527ZM5.02635 11L5.02635 10.5C3.48782 10.5 2.44766 10.2663 1.81131 9.93451C1.1915 9.61135 1 9.22777 1 8.8759H0.5H0C0 9.69715 0.494307 10.3756 1.34899 10.8212C2.18714 11.2582 3.41015 11.5 5.02635 11.5L5.02635 11ZM0.5 8.8759H1C1 8.59753 1.25957 8.19195 2.03815 7.82658C2.77706 7.47983 3.833 7.25181 5.02635 7.25181V6.75181V6.25181C3.71986 6.25181 2.51263 6.49928 1.61333 6.9213C0.753689 7.32471 0 7.98118 0 8.8759H0.5ZM5.02635 6.75181V7.25181C6.2197 7.25181 7.27564 7.47983 8.01455 7.82658C8.79313 8.19195 9.0527 8.59753 9.0527 8.8759H9.5527H10.0527C10.0527 7.98118 9.29901 7.32471 8.43937 6.9213C7.54007 6.49928 6.33284 6.25181 5.02635 6.25181V6.75181Z" fill="white"/>
</svg>
