<svg width="17" height="16" viewBox="0 0 17 16" fill="none" xmlns="http://www.w3.org/2000/svg">
<path d="M7.92076 0.985432C8.07568 0.671523 8.52331 0.671523 8.67823 0.985432L10.6837 5.04903C10.7453 5.17368 10.8642 5.26008 11.0017 5.28007L15.4862 5.9317C15.8326 5.98203 15.9709 6.40775 15.7202 6.65209L12.4753 9.81516C12.3757 9.91219 12.3303 10.052 12.3538 10.189L13.1198 14.6553C13.179 15.0003 12.8169 15.2634 12.507 15.1005L8.49603 12.9918C8.37299 12.9271 8.226 12.9271 8.10296 12.9918L4.09195 15.1005C3.7821 15.2634 3.41997 15.0003 3.47914 14.6553L4.24518 10.189C4.26868 10.052 4.22325 9.91219 4.12371 9.81516L0.878739 6.65209C0.628067 6.40775 0.766391 5.98203 1.11281 5.9317L5.59725 5.28007C5.73481 5.26008 5.85373 5.17368 5.91525 5.04903L7.92076 0.985432Z" stroke="#FFEA00" stroke-width="1.5" stroke-linejoin="round"/>
</svg>
