<svg width="24" height="24" viewBox="0 0 24 24" fill="none" xmlns="http://www.w3.org/2000/svg">
<path d="M19.8337 1.16667C21.1223 1.16667 22.167 2.19703 22.167 3.46804L22.167 19.8653C22.167 21.1363 21.1223 22.1667 19.8337 22.1667H16.3337C15.045 22.1667 14.0003 21.1363 14.0003 19.8653L14.0003 3.46804C14.0003 2.19703 15.045 1.16667 16.3337 1.16667L19.8337 1.16667Z" stroke="#FF00AA" stroke-width="2.33333" stroke-linecap="round" stroke-linejoin="round"/>
<path d="M3.50033 1.16667C2.21166 1.16667 1.16699 2.19703 1.16699 3.46804L1.16699 19.8653C1.16699 21.1363 2.21166 22.1667 3.50033 22.1667H7.00033C8.28899 22.1667 9.33366 21.1363 9.33366 19.8653L9.33366 3.46804C9.33366 2.19703 8.28899 1.16667 7.00033 1.16667L3.50033 1.16667Z" stroke="#FF00AA" stroke-width="2.33333" stroke-linecap="round" stroke-linejoin="round"/>
</svg>
