<svg width="24" height="24" viewBox="0 0 24 24" fill="none" xmlns="http://www.w3.org/2000/svg">
<path d="M23.6408 14.9029C22.0379 21.3315 15.5261 25.2438 9.09602 23.6407C2.66859 22.038 -1.24421 15.5266 0.359461 9.09838C1.96163 2.66907 8.47345 -1.24364 14.9016 0.359095C21.3313 1.96183 25.2437 8.47401 23.6408 14.9029V14.9029Z" fill="#F7931A"/>
<path d="M0.844727 9.21973C2.38009 3.05848 8.62013 -0.691026 14.7803 0.844727C20.942 2.38066 24.6914 8.62121 23.1553 14.7822C21.619 20.9426 15.3789 24.6916 9.2168 23.1553C3.05752 21.6193 -0.691888 15.3797 0.844727 9.21973Z" stroke="black" stroke-opacity="0.2"/>
<path d="M17.2913 10.2904C17.5302 8.6937 16.3143 7.83533 14.6518 7.26271L15.1911 5.09973L13.8743 4.77161L13.3493 6.87759C13.0031 6.79134 12.6476 6.70997 12.2943 6.62935L12.8231 4.50949L11.5071 4.18137L10.9674 6.34359C10.6809 6.27834 10.3996 6.21385 10.1265 6.14598L10.128 6.13922L8.31211 5.68585L7.96183 7.09208C7.96183 7.09208 8.9388 7.31596 8.91817 7.32983C9.45148 7.46296 9.54786 7.81582 9.53173 8.09557L8.91742 10.5597C8.95417 10.5691 9.00181 10.5826 9.05431 10.6036C9.01044 10.5927 8.96355 10.5807 8.91517 10.5691L8.05408 14.0209C7.98882 14.1829 7.82343 14.4259 7.45064 14.3336C7.46377 14.3528 6.49354 14.0948 6.49354 14.0948L5.83984 15.6019L7.5534 16.029C7.87218 16.1089 8.18459 16.1925 8.49212 16.2712L7.9472 18.459L9.26246 18.7871L9.80214 16.6226C10.1614 16.7201 10.5102 16.8101 10.8515 16.8949L10.3137 19.0492L11.6305 19.3773L12.1754 17.1937C14.4208 17.6186 16.1092 17.4472 16.8199 15.4166C17.3926 13.7816 16.7914 12.8385 15.61 12.2235C16.4703 12.0252 17.1184 11.4593 17.2913 10.2904V10.2904ZM14.2827 14.5088C13.8758 16.1437 11.1227 15.2599 10.2301 15.0383L10.9531 12.1399C11.8457 12.3627 14.708 12.8037 14.2827 14.5088ZM14.69 10.2668C14.3187 11.754 12.0272 10.9984 11.2839 10.8132L11.9395 8.18446C12.6828 8.36971 15.0767 8.71544 14.69 10.2668Z" fill="white"/>
</svg>
