<svg width="20" height="16" viewBox="0 0 20 16" fill="none" xmlns="http://www.w3.org/2000/svg">
<path d="M16.088 12.8638C15.5434 12.9553 15.176 13.471 15.2675 14.0157C15.359 14.5603 15.8747 14.9277 16.4194 14.8362L16.088 12.8638ZM15.0152 7.38237C14.4629 7.38237 14.0152 7.83009 14.0152 8.38237C14.0152 8.93466 14.4629 9.38237 15.0152 9.38237V7.38237ZM14.0924 5.28265V6.28265C15.5684 6.28265 16.7646 5.0858 16.7646 3.60999H15.7646H14.7646C14.7646 3.98176 14.4633 4.28265 14.0924 4.28265V5.28265ZM12.4202 3.60999H11.4202C11.4202 5.0858 12.6163 6.28265 14.0924 6.28265V5.28265V4.28265C13.7214 4.28265 13.4202 3.98176 13.4202 3.60999H12.4202ZM14.0924 1.93734V0.937336C12.6163 0.937336 11.4202 2.13419 11.4202 3.60999H12.4202H13.4202C13.4202 3.23823 13.7214 2.93734 14.0924 2.93734V1.93734ZM15.7646 3.60999H16.7646C16.7646 2.13419 15.5684 0.937336 14.0924 0.937336V1.93734V2.93734C14.4633 2.93734 14.7646 3.23823 14.7646 3.60999H15.7646ZM19 11.1641H18C18 11.5763 17.8701 11.9126 17.6161 12.1792C17.3531 12.4551 16.8849 12.73 16.088 12.8638L16.2537 13.85L16.4194 14.8362C17.524 14.6506 18.429 14.225 19.0638 13.5591C19.7075 12.8838 20 12.0369 20 11.1641H19ZM15.0152 8.38237V9.38237C15.9362 9.38237 16.7269 9.64458 17.2605 10.0171C17.7974 10.3919 18 10.8131 18 11.1641H19H20C20 9.97882 19.3105 9.0091 18.4053 8.37715C17.4967 7.74287 16.295 7.38237 15.0152 7.38237V8.38237ZM9.26253 3.42936H8.26253C8.26253 4.46511 7.58382 5.03069 6.89183 5.03069V6.03069V7.03069C8.81845 7.03069 10.2625 5.43497 10.2625 3.42936H9.26253ZM6.89183 6.03069V5.03069C6.19984 5.03069 5.52113 4.46511 5.52113 3.42936H4.52113H3.52113C3.52113 5.43497 4.96521 7.03069 6.89183 7.03069V6.03069ZM4.52113 3.42936H5.52113C5.52113 2.91225 5.69567 2.57237 5.9127 2.36129C6.1359 2.14421 6.4696 2 6.89183 2V1V0C6.00476 0 5.15311 0.310128 4.51827 0.927559C3.87728 1.55099 3.52113 2.42578 3.52113 3.42936H4.52113ZM6.89183 1V2C7.31406 2 7.64776 2.14421 7.87096 2.36129C8.08798 2.57237 8.26253 2.91225 8.26253 3.42936H9.26253H10.2625C10.2625 2.42578 9.90638 1.55099 9.26538 0.927559C8.63055 0.310128 7.7789 0 6.89183 0V1ZM13.0703 12.1679H12.0703C12.0703 12.4806 11.9159 12.8937 11.1677 13.2838C10.3865 13.6911 9.06062 14 7.03513 14V15L7.03513 16C9.21595 16 10.9076 15.6749 12.0924 15.0572C13.3103 14.4222 14.0703 13.4193 14.0703 12.1679H13.0703ZM7.03513 15V14C5.00965 14 3.68372 13.6911 2.90252 13.2838C2.1544 12.8937 2 12.4806 2 12.1679H1H0C0 13.4193 0.76001 14.4222 1.97789 15.0572C3.16268 15.6749 4.85432 16 7.03513 16L7.03513 15ZM1 12.1679H2C2 12.0022 2.18138 11.545 3.19247 11.0705C4.12422 10.6333 5.48172 10.3357 7.03513 10.3357V9.33574V8.33574C5.25544 8.33574 3.59537 8.67219 2.34283 9.25998C1.16963 9.81053 0 10.7695 0 12.1679H1ZM7.03513 9.33574V10.3357C8.58855 10.3357 9.94605 10.6333 10.8778 11.0705C11.8889 11.545 12.0703 12.0022 12.0703 12.1679H13.0703H14.0703C14.0703 10.7695 12.9006 9.81053 11.7274 9.25998C10.4749 8.67219 8.81483 8.33574 7.03513 8.33574V9.33574Z" fill="#8A38F5"/>
</svg>
