<svg width="19" height="18" viewBox="0 0 19 18" fill="none" xmlns="http://www.w3.org/2000/svg">
<path d="M8.80068 1.0949C8.97282 0.746116 9.47018 0.746116 9.64231 1.0949L11.8707 5.61001C11.939 5.74851 12.0711 5.84451 12.224 5.86672L17.2067 6.59075C17.5916 6.64668 17.7453 7.1197 17.4668 7.3912L13.8613 10.9057C13.7507 11.0135 13.7002 11.1689 13.7263 11.3211L14.5774 16.2837C14.6432 16.667 14.2408 16.9594 13.8965 16.7784L9.43987 14.4354C9.30316 14.3635 9.13983 14.3635 9.00312 14.4354L4.54645 16.7784C4.20217 16.9594 3.7998 16.667 3.86555 16.2837L4.7167 11.3211C4.74281 11.1689 4.69234 11.0135 4.58174 10.9057L0.976213 7.3912C0.697689 7.1197 0.851382 6.64668 1.23629 6.59075L6.219 5.86672C6.37185 5.84451 6.50399 5.74851 6.57234 5.61001L8.80068 1.0949Z" stroke="#FF8000" stroke-width="1.66667" stroke-linejoin="round"/>
</svg>
